<mxfile host="app.diagrams.net" modified="2024-07-15T16:12:11.930Z" agent="Mozilla/5.0 (Windows NT 10.0; Win64; x64) AppleWebKit/537.36 (KHTML, like Gecko) Chrome/123.0.0.0 Safari/537.36 OPR/109.0.0.0" version="24.6.5" etag="nGsDXnP33pr8XJw31vnH" type="github">
  <diagram name="Strona-1" id="FElUxiMjt4MQKUtSUmJR">
    <mxGraphModel>
      <root>
        <mxCell id="0" />
        <mxCell id="1" parent="0" />
        <mxCell id="2" value="Backend" style="whiteSpace=wrap;strokeWidth=2;verticalAlign=top;" vertex="1" parent="1">
          <mxGeometry width="414" height="336" as="geometry" />
        </mxCell>
        <mxCell id="3" value="Authentication" style="rounded=1;absoluteArcSize=1;arcSize=14;whiteSpace=wrap;strokeWidth=2;" vertex="1" parent="2">
          <mxGeometry x="43" y="117" width="122" height="34" as="geometry" />
        </mxCell>
        <mxCell id="4" value="API" style="rounded=1;absoluteArcSize=1;arcSize=14;whiteSpace=wrap;strokeWidth=2;" vertex="1" parent="2">
          <mxGeometry x="137" y="33" width="39" height="34" as="geometry" />
        </mxCell>
        <mxCell id="5" value="CRUD operations" style="rounded=1;absoluteArcSize=1;arcSize=14;whiteSpace=wrap;strokeWidth=2;" vertex="1" parent="2">
          <mxGeometry x="215" y="117" width="134" height="34" as="geometry" />
        </mxCell>
        <mxCell id="6" value="Database" style="rounded=1;absoluteArcSize=1;arcSize=14;whiteSpace=wrap;strokeWidth=2;" vertex="1" parent="2">
          <mxGeometry x="105" y="201" width="81" height="34" as="geometry" />
        </mxCell>
        <mxCell id="7" value="Notifications" style="rounded=1;absoluteArcSize=1;arcSize=14;whiteSpace=wrap;strokeWidth=2;" vertex="1" parent="2">
          <mxGeometry x="281" y="201" width="106" height="34" as="geometry" />
        </mxCell>
        <mxCell id="8" value="Invitations" style="rounded=1;absoluteArcSize=1;arcSize=14;whiteSpace=wrap;strokeWidth=2;" vertex="1" parent="2">
          <mxGeometry x="245" y="285" width="90" height="34" as="geometry" />
        </mxCell>
        <mxCell id="9" value="" style="curved=1;startArrow=none;endArrow=block;exitX=0;exitY=0.96;entryX=0.5;entryY=0;" edge="1" parent="2" source="4" target="3">
          <mxGeometry relative="1" as="geometry">
            <Array as="points">
              <mxPoint x="104" y="92" />
            </Array>
          </mxGeometry>
        </mxCell>
        <mxCell id="10" value="" style="curved=1;startArrow=none;endArrow=block;exitX=1;exitY=0.69;entryX=0.51;entryY=0;" edge="1" parent="2" source="4" target="5">
          <mxGeometry relative="1" as="geometry">
            <Array as="points">
              <mxPoint x="283" y="92" />
            </Array>
          </mxGeometry>
        </mxCell>
        <mxCell id="11" value="" style="curved=1;startArrow=none;endArrow=block;exitX=0.09;exitY=1.01;entryX=0.5;entryY=0.01;" edge="1" parent="2" source="5" target="6">
          <mxGeometry relative="1" as="geometry">
            <Array as="points">
              <mxPoint x="145" y="176" />
            </Array>
          </mxGeometry>
        </mxCell>
        <mxCell id="12" value="" style="curved=1;startArrow=none;endArrow=block;exitX=0.66;exitY=1.01;entryX=0.5;entryY=0.01;" edge="1" parent="2" source="5" target="7">
          <mxGeometry relative="1" as="geometry">
            <Array as="points">
              <mxPoint x="334" y="176" />
            </Array>
          </mxGeometry>
        </mxCell>
        <mxCell id="13" value="" style="curved=1;startArrow=none;endArrow=block;exitX=0.39;exitY=1.01;entryX=0.3;entryY=0.01;" edge="1" parent="2" source="5" target="8">
          <mxGeometry relative="1" as="geometry">
            <Array as="points">
              <mxPoint x="246" y="176" />
              <mxPoint x="246" y="260" />
            </Array>
          </mxGeometry>
        </mxCell>
        <mxCell id="14" value="" style="curved=1;dashed=1;dashPattern=2 3;startArrow=none;endArrow=block;exitX=0.5;exitY=1.01;entryX=0.7;entryY=0.01;" edge="1" parent="2" source="7" target="8">
          <mxGeometry relative="1" as="geometry">
            <Array as="points">
              <mxPoint x="334" y="260" />
            </Array>
          </mxGeometry>
        </mxCell>
        <mxCell id="15" value="Frontend" style="whiteSpace=wrap;strokeWidth=2;verticalAlign=top;" vertex="1" parent="1">
          <mxGeometry x="66" y="386" width="282" height="336" as="geometry" />
        </mxCell>
        <mxCell id="16" value="Login" style="rounded=1;absoluteArcSize=1;arcSize=14;whiteSpace=wrap;strokeWidth=2;" vertex="1" parent="15">
          <mxGeometry x="129" y="117" width="53" height="34" as="geometry" />
        </mxCell>
        <mxCell id="17" value="User" style="rounded=1;absoluteArcSize=1;arcSize=14;whiteSpace=wrap;strokeWidth=2;" vertex="1" parent="15">
          <mxGeometry x="131" y="33" width="48" height="34" as="geometry" />
        </mxCell>
        <mxCell id="18" value="Dashboard" style="rounded=1;absoluteArcSize=1;arcSize=14;whiteSpace=wrap;strokeWidth=2;" vertex="1" parent="15">
          <mxGeometry x="111" y="201" width="90" height="34" as="geometry" />
        </mxCell>
        <mxCell id="19" value="Create/List" style="rounded=1;absoluteArcSize=1;arcSize=14;whiteSpace=wrap;strokeWidth=2;" vertex="1" parent="15">
          <mxGeometry x="43" y="285" width="98" height="34" as="geometry" />
        </mxCell>
        <mxCell id="20" value="Invite" style="rounded=1;absoluteArcSize=1;arcSize=14;whiteSpace=wrap;strokeWidth=2;" vertex="1" parent="15">
          <mxGeometry x="191" y="285" width="56" height="34" as="geometry" />
        </mxCell>
        <mxCell id="21" value="" style="curved=1;startArrow=none;endArrow=block;exitX=-0.87;exitY=-10.35;entryX=-0.75;entryY=-11.35;" edge="1" parent="15" source="17" target="16">
          <mxGeometry relative="1" as="geometry">
            <Array as="points" />
          </mxGeometry>
        </mxCell>
        <mxCell id="22" value="" style="curved=1;startArrow=none;endArrow=block;exitX=-0.75;exitY=-10.35;entryX=-0.24;entryY=-11.35;" edge="1" parent="15" source="16" target="18">
          <mxGeometry relative="1" as="geometry">
            <Array as="points" />
          </mxGeometry>
        </mxCell>
        <mxCell id="23" value="" style="curved=1;startArrow=none;endArrow=block;exitX=-0.53;exitY=-10.34;entryX=-0.17;entryY=-11.34;" edge="1" parent="15" source="18" target="19">
          <mxGeometry relative="1" as="geometry">
            <Array as="points">
              <mxPoint x="92" y="260" />
            </Array>
          </mxGeometry>
        </mxCell>
        <mxCell id="24" value="" style="curved=1;startArrow=none;endArrow=block;exitX=0.05;exitY=-10.34;entryX=-0.68;entryY=-11.34;" edge="1" parent="15" source="18" target="20">
          <mxGeometry relative="1" as="geometry">
            <Array as="points">
              <mxPoint x="219" y="260" />
            </Array>
          </mxGeometry>
        </mxCell>
        <mxCell id="25" value="Database" style="whiteSpace=wrap;strokeWidth=2;verticalAlign=top;" vertex="1" parent="1">
          <mxGeometry x="167" y="773" width="81" height="34" as="geometry" />
        </mxCell>
      </root>
    </mxGraphModel>
  </diagram>
</mxfile>
